<svg xmlns="http://www.w3.org/2000/svg" width="512" height="512" viewBox="0 0 512 512">
  <defs>
    <linearGradient id="bg" x1="0" y1="0" x2="1" y2="1">
      <stop offset="0" stop-color="#3b82f6"/>
      <stop offset="0.52" stop-color="#6366f1"/>
      <stop offset="1" stop-color="#06b6d4"/>
    </linearGradient>
    <linearGradient id="cap" x1="0" y1="0" x2="0" y2="1">
      <stop offset="0" stop-color="#ffffff"/>
      <stop offset="1" stop-color="#dbe6fb"/>
    </linearGradient>
    <radialGradient id="glow" cx="0.28" cy="0.2" r="0.9">
      <stop offset="0" stop-color="#ffffff" stop-opacity="0.28"/>
      <stop offset="1" stop-color="#ffffff" stop-opacity="0"/>
    </radialGradient>
  </defs>

  <!-- 背景徽章 -->
  <rect x="10" y="10" width="492" height="492" rx="116" fill="url(#bg)"/>
  <rect x="10" y="10" width="492" height="492" rx="116" fill="url(#glow)"/>
  <rect x="22" y="22" width="468" height="468" rx="104" fill="none" stroke="#ffffff" stroke-opacity="0.22" stroke-width="4"/>

  <!-- 星星点缀 -->
  <path d="M104 116 l0 -0 M118 92 L124 104 L136 110 L124 116 L118 128 L112 116 L100 110 L112 104 Z" fill="#ffffff" fill-opacity="0.85"/>
  <path d="M404 108 L408 118 L418 122 L408 126 L404 136 L400 126 L390 122 L400 118 Z" fill="#ffffff" fill-opacity="0.55"/>
  <circle cx="150" cy="164" r="6" fill="#ffffff" fill-opacity="0.5"/>

  <!-- 学士帽帽板（菱形） -->
  <path d="M256 126 L410 196 L256 266 L102 196 Z" fill="url(#cap)"/>
  <path d="M256 126 L410 196 L256 266 L102 196 Z" fill="none" stroke="#b6c6ec" stroke-width="3" stroke-linejoin="round"/>

  <!-- 帽身（头带） -->
  <rect x="186" y="214" width="140" height="92" rx="36" fill="url(#cap)"/>
  <rect x="186" y="214" width="140" height="92" rx="36" fill="none" stroke="#b6c6ec" stroke-width="3"/>

  <!-- 帽顶纽扣 -->
  <circle cx="256" cy="196" r="15" fill="#f59e0b"/>

  <!-- 流苏 -->
  <path d="M272 198 L360 148" stroke="#f59e0b" stroke-width="9" stroke-linecap="round"/>
  <path d="M370 134 L386 146 L370 158 L354 146 Z" fill="#f59e0b"/>

  <!-- 书本（帽下展开） -->
  <path d="M152 352 C188 326 222 326 250 348 L250 428 C222 406 188 406 152 432 Z" fill="#ffffff" fill-opacity="0.95"/>
  <path d="M360 352 C324 326 290 326 262 348 L262 428 C290 406 324 406 360 432 Z" fill="#ffffff" fill-opacity="0.7"/>
  <path d="M250 348 L262 348 L262 428 L250 428 Z" fill="#e6edfb"/>

  <!-- 对勾徽章（纠错/正确） -->
  <circle cx="404" cy="392" r="48" fill="#22c55e"/>
  <circle cx="404" cy="392" r="48" fill="none" stroke="#ffffff" stroke-opacity="0.35" stroke-width="5"/>
  <path d="M382 392 L398 408 L428 376" fill="none" stroke="#ffffff" stroke-width="15" stroke-linecap="round" stroke-linejoin="round"/>
</svg>
